<svg xmlns="http://www.w3.org/2000/svg" width="1510" height="650" viewBox="0 0 1510 650"><style>text{font-family:Arial,sans-serif;fill:#202B32}.small{font-size:22px;fill:#56636B}.label{font-size:25px;font-weight:700}.note{font-size:20px;fill:#56636B}</style><defs><marker id="ink" viewBox="0 0 10 10" refX="9" refY="5" markerWidth="10" markerHeight="10" orient="auto-start-reverse" markerUnits="userSpaceOnUse"><path d="M0 0L10 5L0 10Z" fill="#202B32"/></marker><marker id="orange" viewBox="0 0 10 10" refX="9" refY="5" markerWidth="10" markerHeight="10" orient="auto-start-reverse" markerUnits="userSpaceOnUse"><path d="M0 0L10 5L0 10Z" fill="#BD5129"/></marker><marker id="blue" viewBox="0 0 10 10" refX="9" refY="5" markerWidth="10" markerHeight="10" orient="auto-start-reverse" markerUnits="userSpaceOnUse"><path d="M0 0L10 5L0 10Z" fill="#246B88"/></marker><marker id="green" viewBox="0 0 10 10" refX="9" refY="5" markerWidth="10" markerHeight="10" orient="auto-start-reverse" markerUnits="userSpaceOnUse"><path d="M0 0L10 5L0 10Z" fill="#267568"/></marker><marker id="muted" viewBox="0 0 10 10" refX="9" refY="5" markerWidth="10" markerHeight="10" orient="auto-start-reverse" markerUnits="userSpaceOnUse"><path d="M0 0L10 5L0 10Z" fill="#56636B"/></marker></defs><rect x="15" y="320" width="160" height="78" rx="5" fill="#FFFFFF" stroke="#202B32" stroke-width="3"/><text x="95" y="367" class="label" text-anchor="middle">VGO feed</text><rect x="235" y="310" width="190" height="98" rx="5" fill="#FFFFFF" stroke="#202B32" stroke-width="3"/><text x="330" y="367" class="label" text-anchor="middle">Feed preheat</text><rect x="500" y="295" width="180" height="115" rx="5" fill="#FFFFFF" stroke="#BD5129" stroke-width="3"/><text x="590" y="360.5" class="label" text-anchor="middle">Riser</text><rect x="755" y="75" width="250" height="95" rx="5" fill="#FFFFFF" stroke="#202B32" stroke-width="3"/><text x="880" y="130.5" class="label" text-anchor="middle">Disengager</text><rect x="785" y="260" width="190" height="85" rx="5" fill="#FFFFFF" stroke="#202B32" stroke-width="3"/><text x="880" y="310.5" class="label" text-anchor="middle">Stripper</text><rect x="500" y="490" width="230" height="95" rx="5" fill="#FFFFFF" stroke="#BD5129" stroke-width="3"/><text x="615" y="545.5" class="label" text-anchor="middle">Regenerator</text><rect x="1115" y="75" width="230" height="95" rx="5" fill="#FFFFFF" stroke="#202B32" stroke-width="3"/><text x="1230" y="130.5" class="label" text-anchor="middle">Fractionator</text><rect x="1115" y="300" width="230" height="85" rx="5" fill="#FFFFFF" stroke="#202B32" stroke-width="3"/><text x="1230" y="350.5" class="label" text-anchor="middle">Gas recovery</text><path d="M175 359H235" fill="none" stroke="#202B32" stroke-width="4" /><polygon points="235,359 222,365 222,353" fill="#202B32"/><path d="M425 359H500" fill="none" stroke="#202B32" stroke-width="4" /><polygon points="500,359 487,365 487,353" fill="#202B32"/><path d="M590 295V122H755" fill="none" stroke="#267568" stroke-width="4" /><polygon points="755,122 742,128 742,116" fill="#267568"/><text x="600" y="235" class="small" text-anchor="start">Vapour +</text><text x="600" y="264" class="small" text-anchor="start">catalyst</text><path d="M1005 122H1115" fill="none" stroke="#267568" stroke-width="4" /><polygon points="1115,122 1102,128 1102,116" fill="#267568"/><text x="1030" y="97" class="note" text-anchor="start">Vapour</text><path d="M880 170V260" fill="none" stroke="#56636B" stroke-width="4" /><polygon points="880,260 874,247 886,247" fill="#56636B"/><text x="894" y="211" class="small" text-anchor="start">Coked</text><text x="894" y="239" class="small" text-anchor="start">catalyst</text><path d="M880 345V537H730" fill="none" stroke="#56636B" stroke-width="4" /><polygon points="730,537 743,531 743,543" fill="#56636B"/><text x="898" y="435" class="small" text-anchor="start">Spent catalyst</text><path d="M500 537H462V395H500" fill="none" stroke="#BD5129" stroke-width="4" /><polygon points="500,395 487,401 487,389" fill="#BD5129"/><text x="206" y="492" class="small" text-anchor="start">Hot regenerated</text><text x="206" y="522" class="small" text-anchor="start">catalyst carries heat</text><path d="M30 607H615V585" fill="none" stroke="#246B88" stroke-width="4" /><polygon points="615,585 621,598 609,598" fill="#246B88"/><text x="35" y="591" class="small" text-anchor="start">Air from blower</text><path d="M730 575H950V640H1410" fill="none" stroke="#56636B" stroke-width="4" stroke-dasharray="9 6"/><polygon points="1410,640 1397,646 1397,634" fill="#56636B"/><text x="979" y="628" class="note" text-anchor="start">Flue gas to recovery / cleanup</text><path d="M1090 272H975" fill="none" stroke="#246B88" stroke-width="4" stroke-dasharray="9 6"/><polygon points="975,272 988,266 988,278" fill="#246B88"/><text x="1020" y="252" class="note" text-anchor="start">Steam</text><path d="M335 245H540V295" fill="none" stroke="#246B88" stroke-width="4" stroke-dasharray="9 6"/><polygon points="540,295 534,282 546,282" fill="#246B88"/><text x="336" y="226" class="note" text-anchor="start">Atomising steam</text><path d="M1230 170V300" fill="none" stroke="#267568" stroke-width="4" /><polygon points="1230,300 1224,287 1236,287" fill="#267568"/><text x="1250" y="215" class="note" text-anchor="start">Wet gas +</text><text x="1250" y="242" class="note" text-anchor="start">light naphtha</text><path d="M1345 100H1460" fill="none" stroke="#267568" stroke-width="4" /><polygon points="1460,100 1447,106 1447,94" fill="#267568"/><text x="1380" y="77" class="note" text-anchor="start">Gasoline</text><path d="M1345 142H1460" fill="none" stroke="#202B32" stroke-width="4" /><polygon points="1460,142 1447,148 1447,136" fill="#202B32"/><text x="1380" y="178" class="note" text-anchor="start">LCO / HCO</text><path d="M1345 325H1460" fill="none" stroke="#267568" stroke-width="4" /><polygon points="1460,325 1447,331 1447,319" fill="#267568"/><text x="1380" y="301" class="note" text-anchor="start">LPG</text><path d="M1345 365H1460" fill="none" stroke="#267568" stroke-width="4" /><polygon points="1460,365 1447,371 1447,359" fill="#267568"/><text x="1362" y="404" class="note" text-anchor="start">Fuel gas + H₂S</text><path d="M1115 145H1060V595H1420" fill="none" stroke="#202B32" stroke-width="4" /><polygon points="1420,595 1407,601 1407,589" fill="#202B32"/><text x="1090" y="577" class="note" text-anchor="start">Slurry / decant oil</text><text x="15" y="50" class="small" text-anchor="start">Simplified side-by-side FCC. Product paths and catalyst loop are separate.</text></svg>